HIERARCHY
ROOT ui
{
	 OFFSET 0 0 0
	 CHANNELS 3 XPosition YPosition Z Position
	 EndSite
	 {
	 OFFSET 0 -1 0
	 }
}
ROOT li
{
	 OFFSET 0 0 0
	 CHANNELS 3 XPosition YPosition Z Position
	 EndSite
	 {
	 OFFSET 0 -1 0
	 }
}
ROOT ul
{
	 OFFSET 0 0 0
	 CHANNELS 3 XPosition YPosition Z Position
	 EndSite
	 {
	 OFFSET 0 -1 0
	 }
}
ROOT ll
{
	 OFFSET 0 0 0
	 CHANNELS 3 XPosition YPosition Z Position
	 EndSite
	 {
	 OFFSET 0 -1 0
	 }
}
ROOT tt
{
	 OFFSET 0 0 0
	 CHANNELS 3 XPosition YPosition Z Position
	 EndSite
	 {
	 OFFSET 0 -1 0
	 }
}
ROOT tb
{
	 OFFSET 0 0 0
	 CHANNELS 3 XPosition YPosition Z Position
	 EndSite
	 {
	 OFFSET 0 -1 0
	 }
}
ROOT td
{
	 OFFSET 0 0 0
	 CHANNELS 3 XPosition YPosition Z Position
	 EndSite
	 {
	 OFFSET 0 -1 0
	 }
}
ROOT v
{
	 OFFSET 0 0 0
	 CHANNELS 3 XPosition YPosition Z Position
	 EndSite
	 {
	 OFFSET 0 -1 0
	 }
}
ROOT bn
{
	 OFFSET 0 0 0
	 CHANNELS 3 XPosition YPosition Z Position
	 EndSite
	 {
	 OFFSET 0 -1 0
	 }
}
MOTION
Frames: 19
Frame Time: 0.002
0.003793304920196533	-9.00626003742218E-4	0		0.8025389404296875	-3.53001123046875	0		-1.0421732177734375	0.0077000632286071775	0		-0.4573262329101562	-3.980070068359375	0		0.8119608764648437	-1.7200347900390625	0		2.539501708984375	-1.005922119140625	0		4.3054638671875	-0.542056884765625	0		5.66915087890625	0.19635235595703124	0		-0.14271266174316405	5.94114208984375	0		
-0.002135823965072632	0.011099020957946777	0		0.8330103149414062	-3.528371337890625	0		-1.0421787109375	0.007819485187530518	0		-0.4528965454101562	-3.974071533203125	0		0.739785888671875	-1.70573095703125	0		2.530323486328125	-1.0092864990234376	0		4.30234326171875	-0.5477272338867187	0		5.669173828125	0.19545608520507812	0		-0.10678215026855468	5.94689892578125	0		
0.006834988117218018	0.0020045320987701416	0		0.8045252075195313	-3.527344970703125	0		-1.0530823974609376	0.018010398864746095	0		-0.4194951171875	-3.9802646484375	0		0.7735025634765625	-1.7151002197265626	0		2.5481962890625	-1.010814697265625	0		4.2992578125	-0.5533783569335937	0		5.674291015625	0.20354991149902343	0		-0.10686161804199219	5.9488857421875	0		
0.0038778059482574463	-0.0010060410499572753	0		0.845091064453125	-3.526766357421875	0		-1.05301708984375	0.018130538940429687	0		-0.45697845458984376	-3.97698486328125	0		0.7463349609375	-1.71305810546875	0		2.5061767578125	-1.0019243774414062	0		4.2932958984375	-0.5459805908203125	0		5.66933544921875	0.19574533081054687	0		-0.12103186798095703	5.93697265625	0		
-0.005972771167755127	0.007039680004119873	0		0.789741455078125	-3.52152490234375	0		-1.05794775390625	0.014285832405090333	0		-0.40244015502929686	-3.979323974609375	0		0.7731818237304687	-1.715367919921875	0		2.530078857421875	-1.0104526977539063	0		4.302294921875	-0.5496488037109375	0		5.6784423828125	0.1928899688720703	0		-0.10306868743896484	5.94584912109375	0		
0.008059417724609375	-0.006071076869964599	0		0.838249267578125	-3.544983154296875	0		-1.0418656005859375	0.008296012878417969	0		-0.4927842102050781	-3.972654541015625	0		0.7201136474609375	-1.711109130859375	0		2.545106689453125	-1.005896728515625	0		4.3113330078125	-0.5522781982421875	0		5.67858984375	0.19214686584472657	0		-0.08511927795410157	5.9547294921875	0		
0.012235236167907716	-0.002104356050491333	0		0.844028076171875	-3.537130615234375	0		-1.0366881103515626	0.012381845474243165	0		-0.41713714599609375	-3.976141357421875	0		0.751083740234375	-1.707420654296875	0		2.52718408203125	-0.999078125	0		4.312521484375	-0.5378078002929687	0		5.6787607421875	0.19146038818359376	0		-0.08623368835449219	5.95775	0		
0.007432802200317383	0.0019380830526351928	0		0.8219400024414063	-3.51805810546875	0		-1.041546875	0.00854163646697998	0		-0.4683314208984375	-3.964717529296875	0		0.7490400390625	-1.7104822998046876	0		2.512161865234375	-1.01024365234375	0		4.30959423828125	-0.5432598266601563	0		5.67084228515625	0.17589224243164062	0		-0.11656555938720703	5.93499267578125	0		
0.004593488216400147	-0.001019806981086731	0		0.8276494750976563	-3.533165771484375	0		-1.0573189697265626	0.014787182807922364	0		-0.38770681762695314	-3.985243408203125	0		0.7660604858398438	-1.708663818359375	0		2.512240234375	-1.0104818725585938	0		4.29368408203125	-0.5485654907226563	0		5.6751015625	0.1832989044189453	0		-0.11675668334960937	5.93703271484375	0		
0.004780892848968506	-9.845589995384216E-4	0		0.81657763671875	-3.523126708984375	0		-1.0521004638671876	0.0188854923248291	0		-0.4717671813964844	-3.967546142578125	0		0.7310352783203125	-1.715439697265625	0		2.51536181640625	-1.0067061157226562	0		4.29785693359375	-0.5439656982421875	0		5.665306640625	0.18287246704101562	0		-0.11502276611328124	5.935072265625	0		
-0.004976161003112793	0.007142576217651367	0		0.8293958129882812	-3.531242431640625	0		-1.0459541015625	0.013983585357666016	0		-0.4230260009765625	-3.98082177734375	0		0.7310698852539063	-1.7154503173828124	0		2.503571044921875	-0.991780517578125	0		4.30293212890625	-0.5523211669921875	0		5.66055810546875	0.18947402954101564	0		-0.08315631103515625	5.957900390625	0		
0.008152725219726563	0.0021148760318756106	0		0.8152491455078125	-3.5361298828125	0		-1.0457862548828125	0.01413597297668457	0		-0.45611593627929686	-3.973467041015625	0		0.7391708984375	-1.706497802734375	0		2.515545654296875	-1.0069962768554688	0		4.29811669921875	-0.5445487060546875	0		5.675685546875	0.18198869323730468	0		-0.11369837951660157	5.9352138671875	0		
-6.37840986251831E-4	0.011272684097290039	0		0.8462391967773437	-3.523336181640625	0		-1.0406839599609374	0.009260805130004882	0		-0.43421780395507814	-3.9685146484375	0		0.7241835327148437	-1.7073450927734375	0		2.53663720703125	-1.0042450561523437	0		4.29821826171875	-0.5447615356445312	0		5.67583837890625	0.181678955078125	0		-0.11314097595214843	5.9353115234375	0		
-0.004566501140594483	0.007411287784576416	0		0.7911591796875	-3.517856201171875	0		-1.056534912109375	0.015557537078857422	0		-0.4713419189453125	-3.96509326171875	0		0.8011132202148438	-1.7158792724609375	0		2.509707275390625	-1.00008837890625	0		4.2942470703125	-0.5498936157226563	0		5.6718896484375	0.17346015930175782	0		-0.11265792846679687	5.93642626953125	0		
0.009383390426635742	-0.005574394226074219	0		0.8429417724609375	-3.527182861328125	0		-1.0564827880859375	0.015739541053771972	0		-0.43856817626953126	-3.972201171875	0		0.7011729125976562	-1.7020216064453124	0		2.50970263671875	-1.0001060180664063	0		4.29830615234375	-0.5450425415039063	0		5.65701318359375	0.18138226318359374	0		-0.11128994750976562	5.93454736328125	0		
-0.044617595672607424	-0.0040163760185241695	0		0.7918455810546875	-3.51568994140625	0		-1.120537353515625	0.010428803443908691	0		-0.45779718017578125	-3.974895751953125	0		0.7090235595703125	-1.708984130859375	0		2.54267333984375	-0.9963541870117187	0		4.29425341796875	-0.5470882568359375	0		5.68006640625	0.18805734252929687	0		-0.07785166931152344	5.95442822265625	0		
0.013323034286499023	-0.0013292150497436523	0		0.8315254516601562	-3.52689599609375	0		-1.029628662109375	0.008901867866516113	0		-0.4530017395019531	-3.968772705078125	0		0.7139163208007813	-1.7029111328125	0		2.5126767578125	-0.9800841064453125	0		4.3012041015625	-0.54018505859375	0		5.6659384765625	0.18106716918945312	0		-0.09573958587646485	5.946716796875	0		
-0.04083308029174805	-7.528160214424133E-4	0		0.7933413696289062	-3.513477294921875	0		-1.0516982421875	0.0202628173828125	0		-0.4203630065917969	-3.97586865234375	0		0.7826854248046875	-1.7043359375	0		2.50932421875	-1.0000039672851562	0		4.293947265625	-0.5501397705078125	0		5.66172412109375	0.17303807067871094	0		-0.09567714691162109	5.946869140625	0		
0.004936977863311768	3.446200117468834E-5	0		0.8449205322265625	-3.522763916015625	0		-1.0459739990234376	0.015400670051574706	0		-0.4706280517578125	-3.963305419921875	0		0.7243809814453125	-1.7057467041015626	0		2.512087890625	-0.9959551391601562	0		4.29773291015625	-0.5451553955078124	0		5.6614931640625	0.17301123046875	0		-0.11181257629394531	5.93615185546875	0		
